<?xml version="1.0" encoding="UTF-8"?><svg xmlns="http://www.w3.org/2000/svg" viewBox="0 0 500.44 89.2"><defs><style>.d{fill:#fff;}.e{fill:#50a5d3;}</style></defs><g id="a"/><g id="b"><g id="c"><path class="d" d="M137.16,58.09v2.07h5.94c-.09,1.23-.3,2.01-.81,2.82-1.2,2.01-3.75,3.42-6.15,3.42-4.44,0-8.13-3.69-8.13-8.19s3.66-8.31,8.31-8.31c2.64,0,4.71,1.17,6.66,3.75l1.65-1.5c-2.55-3.03-5.04-4.35-8.31-4.35-5.88,0-10.56,4.59-10.56,10.38s4.65,10.32,10.26,10.32c2.97,0,5.82-1.35,7.62-3.6,1.35-1.68,1.86-3.45,1.86-6.3v-.51h-8.34Zm21.61-10.29c-5.73,0-10.44,4.68-10.44,10.38s4.68,10.32,10.44,10.32,10.38-4.68,10.38-10.35-4.71-10.35-10.38-10.35h0Zm-.03,2.1c4.53,0,8.16,3.69,8.16,8.28s-3.66,8.22-8.16,8.22-8.16-3.69-8.16-8.22,3.63-8.28,8.16-8.28h0Zm-2.85-6.81c-.84,0-1.53,.69-1.53,1.53s.69,1.53,1.53,1.53,1.53-.69,1.53-1.53-.69-1.53-1.53-1.53h0Zm5.7,0c-.84,0-1.53,.69-1.53,1.53s.69,1.53,1.53,1.53,1.53-.69,1.53-1.53-.69-1.53-1.53-1.53h0Zm15.21,7.11h4.86v-2.07h-11.94v2.07h4.83v17.94h2.25v-17.94h0Zm13.65,0h4.86v-2.07h-11.94v2.07h4.83v17.94h2.25v-17.94h0Zm9.9-2.07h-2.25v20.01h2.25v-20.01h0Zm5.12,20.01h2.25v-15.42l15.57,16.32v-20.91h-2.25v15.51l-15.57-16.35v20.85h0Zm33.23-10.05v2.07h5.94c-.09,1.23-.3,2.01-.81,2.82-1.2,2.01-3.75,3.42-6.15,3.42-4.44,0-8.13-3.69-8.13-8.19s3.66-8.31,8.31-8.31c2.64,0,4.71,1.17,6.66,3.75l1.65-1.5c-2.55-3.03-5.04-4.35-8.31-4.35-5.88,0-10.56,4.59-10.56,10.38s4.65,10.32,10.26,10.32c2.97,0,5.82-1.35,7.62-3.6,1.35-1.68,1.86-3.45,1.86-6.3v-.51h-8.34Zm22.67-7.89v-2.07h-10.35v20.01h10.35v-2.07h-8.1v-7.83h7.89v-2.07h-7.89v-5.97h8.1Zm3.95,17.94h2.25v-15.42l15.57,16.32v-20.91h-2.25v15.51l-15.57-16.35v20.85h0Z"/><path class="d" d="M137.16,24.09v2.07h5.94c-.09,1.23-.3,2.01-.81,2.82-1.2,2.01-3.75,3.42-6.15,3.42-4.44,0-8.13-3.69-8.13-8.19s3.66-8.31,8.31-8.31c2.64,0,4.71,1.17,6.66,3.75l1.65-1.5c-2.55-3.03-5.04-4.35-8.31-4.35-5.88,0-10.56,4.59-10.56,10.38s4.65,10.32,10.26,10.32c2.97,0,5.82-1.35,7.62-3.6,1.35-1.68,1.86-3.45,1.86-6.3v-.51h-8.34Zm22.67-7.89v-2.07h-10.35v20.01h10.35v-2.07h-8.1v-7.83h7.89v-2.07h-7.89v-5.97h8.1Zm13.13-2.4c-5.73,0-10.44,4.68-10.44,10.38s4.68,10.32,10.44,10.32,10.38-4.68,10.38-10.35-4.71-10.35-10.38-10.35h0Zm-.03,2.1c4.53,0,8.16,3.69,8.16,8.28s-3.66,8.22-8.16,8.22-8.16-3.69-8.16-8.22,3.63-8.28,8.16-8.28h0Zm19.61,9.3c3.09-.3,5.04-2.43,5.04-5.55,0-1.8-.87-3.51-2.22-4.44-1.14-.78-2.52-1.08-4.8-1.08h-3.24v20.01h2.25v-8.76h.57l6.03,8.76h2.73l-6.36-8.94h0Zm-2.97-1.8v-7.2h1.32c2.94,0,4.5,1.2,4.5,3.45,0,2.46-1.53,3.75-4.41,3.75h-1.41Zm22.4,.69v2.07h5.94c-.09,1.23-.3,2.01-.81,2.82-1.2,2.01-3.75,3.42-6.15,3.42-4.44,0-8.13-3.69-8.13-8.19s3.66-8.31,8.31-8.31c2.64,0,4.71,1.17,6.66,3.75l1.65-1.5c-2.55-3.03-5.04-4.35-8.31-4.35-5.88,0-10.56,4.59-10.56,10.38s4.65,10.32,10.26,10.32c2.97,0,5.82-1.35,7.62-3.6,1.35-1.68,1.86-3.45,1.86-6.3v-.51h-8.34Zm11.33,.2v1.92h5.43v-1.92h-5.43Zm19.92,4.18l2.37,5.67h2.46l-9-20.97-9.21,20.97h2.43l2.4-5.67h8.55Zm-.87-2.07h-6.75l3.42-8.01,3.33,8.01h0Zm9.72-12.27h-2.25v12.87c0,2.19,.36,3.51,1.32,4.74,1.29,1.71,3.51,2.76,5.82,2.76s4.47-1.05,5.79-2.76c.96-1.23,1.32-2.58,1.32-4.74V14.13h-2.25v12.27c0,2.07-.15,2.97-.66,3.84-.78,1.26-2.49,2.16-4.2,2.16s-3.45-.9-4.23-2.16c-.51-.87-.66-1.77-.66-3.84V14.13h0Zm27.28,9.96v2.07h5.94c-.09,1.23-.3,2.01-.81,2.82-1.2,2.01-3.75,3.42-6.15,3.42-4.44,0-8.13-3.69-8.13-8.19s3.66-8.31,8.31-8.31c2.64,0,4.71,1.17,6.66,3.75l1.65-1.5c-2.55-3.03-5.04-4.35-8.31-4.35-5.88,0-10.56,4.59-10.56,10.38s4.65,10.32,10.26,10.32c2.97,0,5.82-1.35,7.62-3.6,1.35-1.68,1.86-3.45,1.86-6.3v-.51h-8.34Zm14.44-9.96h-2.25v12.87c0,2.19,.36,3.51,1.32,4.74,1.29,1.71,3.51,2.76,5.82,2.76s4.47-1.05,5.79-2.76c.96-1.23,1.32-2.58,1.32-4.74V14.13h-2.25v12.27c0,2.07-.15,2.97-.66,3.84-.78,1.26-2.49,2.16-4.2,2.16s-3.45-.9-4.23-2.16c-.51-.87-.66-1.77-.66-3.84V14.13h0Zm27.46,2.79c-1.2-2.07-2.91-3.12-5.16-3.12-3.18,0-5.61,2.22-5.61,5.13,0,2.25,1.17,3.66,4.05,4.95l.6,.27,.6,.27,.6,.3c.66,.27,1.23,.57,1.74,.9,1.11,.69,1.65,1.62,1.65,2.85,0,2.22-1.77,3.93-4.08,3.93-2.1,0-3.48-1.26-4.02-3.66l-2.16,.6c.78,3.3,3,5.16,6.21,5.16,3.54,0,6.3-2.73,6.3-6.18,0-2.49-1.32-4.08-4.53-5.49l-.63-.27-.63-.27-.63-.3c-.57-.24-1.08-.54-1.56-.84-.84-.57-1.26-1.29-1.26-2.16,0-1.77,1.44-3.09,3.3-3.09,1.56,0,2.43,.54,3.45,2.16l1.77-1.14h0Zm9.56-.72h4.86v-2.07h-11.94v2.07h4.83v17.94h2.25V16.2h0Zm4.94,8.09v1.92h5.43v-1.92h-5.43Zm11.35-10.16h-2.25v12.87c0,2.19,.36,3.51,1.32,4.74,1.29,1.71,3.51,2.76,5.82,2.76s4.47-1.05,5.79-2.76c.96-1.23,1.32-2.58,1.32-4.74V14.13h-2.25v12.27c0,2.07-.15,2.97-.66,3.84-.78,1.26-2.49,2.16-4.2,2.16s-3.45-.9-4.23-2.16c-.51-.87-.66-1.77-.66-3.84V14.13h0Zm17.13,20.01h2.25v-15.42l15.57,16.32V14.13h-2.25v15.51l-15.57-16.35v20.85h0Zm25.24-20.01h-2.25v20.01h2.25V14.13h0Zm5.12,0h-2.46l8.1,21.18,8.13-21.18h-2.43l-5.67,15.24-5.67-15.24h0Zm26.81,2.07v-2.07h-10.35v20.01h10.35v-2.07h-8.1v-7.83h7.89v-2.07h-7.89v-5.97h8.1Zm9.17,9c3.09-.3,5.04-2.43,5.04-5.55,0-1.8-.87-3.51-2.22-4.44-1.14-.78-2.52-1.08-4.8-1.08h-3.24v20.01h2.25v-8.76h.57l6.03,8.76h2.73l-6.36-8.94h0Zm-2.97-1.8v-7.2h1.32c2.94,0,4.5,1.2,4.5,3.45,0,2.46-1.53,3.75-4.41,3.75h-1.41Zm22.79-6.48c-1.2-2.07-2.91-3.12-5.16-3.12-3.18,0-5.61,2.22-5.61,5.13,0,2.25,1.17,3.66,4.05,4.95l.6,.27,.6,.27,.6,.3c.66,.27,1.23,.57,1.74,.9,1.11,.69,1.65,1.62,1.65,2.85,0,2.22-1.77,3.93-4.08,3.93-2.1,0-3.48-1.26-4.02-3.66l-2.16,.6c.78,3.3,3,5.16,6.21,5.16,3.54,0,6.3-2.73,6.3-6.18,0-2.49-1.32-4.08-4.53-5.49l-.63-.27-.63-.27-.63-.3c-.57-.24-1.08-.54-1.56-.84-.84-.57-1.26-1.29-1.26-2.16,0-1.77,1.44-3.09,3.3-3.09,1.56,0,2.43,.54,3.45,2.16l1.77-1.14h0Zm6.97-2.79h-2.25v20.01h2.25V14.13h0Zm9.83,2.07h4.86v-2.07h-11.94v2.07h4.83v17.94h2.25V16.2h0Zm17.35,12.27l2.37,5.67h2.46l-9-20.97-9.21,20.97h2.43l2.4-5.67h8.55Zm-.87-2.07h-6.75l3.42-8.01,3.33,8.01h0Zm-6.06-17.31c-.84,0-1.53,.69-1.53,1.53s.69,1.53,1.53,1.53,1.53-.69,1.53-1.53-.69-1.53-1.53-1.53h0Zm5.7,0c-.84,0-1.53,.69-1.53,1.53s.69,1.53,1.53,1.53,1.53-.69,1.53-1.53-.69-1.53-1.53-1.53h0Zm12.27,7.11h4.86v-2.07h-11.94v2.07h4.83v17.94h2.25V16.2h0Z"/><path class="e" d="M82.94,0l-24.3,52.79c-2.8,5-8.1,8.4-14.24,8.4v9.07c10.81,0,20.04-6.74,23.73-16.25h28.46l11.16,25.21h10.88L82.94,0h0Zm-.17,22.27l9.77,22.4h-20.72l10.95-22.4h0Z"/><path class="d" d="M65.02,17.14l4.26-9.14C62.18,3.2,53.62,.39,44.4,.39,19.88,.39,0,20.27,0,44.8s19.88,44.4,44.4,44.4c21.36,0,39.2-15.09,43.44-35.19h-10.19c-4.03,14.59-17.37,25.32-33.25,25.32-19.07,0-34.53-15.46-34.53-34.53S25.33,10.27,44.4,10.27c7.74,0,14.86,2.58,20.61,6.88h0Zm-20.61,36.86h13.45c.27-.4,.55-.79,.79-1.21l3.75-8.14h-17.98v9.35h0Z"/></g></g></svg>